<?xml version="1.0" encoding="utf-8"?>
<!-- Generator: Adobe Illustrator 24.1.0, SVG Export Plug-In . SVG Version: 6.00 Build 0)  -->
<svg version="1.1" id="Layer_1" xmlns="http://www.w3.org/2000/svg" xmlns:xlink="http://www.w3.org/1999/xlink" x="0px" y="0px"
	 viewBox="0 0 1366 768" style="enable-background:new 0 0 1366 768;" xml:space="preserve">
<style type="text/css">
	.st0{fill:none;stroke:#754C24;stroke-miterlimit:10;}
</style>
<g>
	<path class="st0" d="M690.07,355.75c-0.09,17.04,9.25,19.49,17.65,19.54c6.72,0.04,13.45-0.89,20.17-1.81
		c6.72-0.92,13.21-1.85,19.93-1.81c22.08,0.12,31.36,14.57,31.25,34.97l-0.03,5.04l-13.2-0.07l0.02-4.32
		c0.08-14.16-7.58-19-20.54-19.07c-5.52-0.03-11.29,0.66-17.05,1.59c-6,0.93-11.77,1.61-18.25,1.58c-15.36,0.16-23-6.61-25.83-17.42
		l-0.48,0c-2.7,10.79-10.9,17.46-26.25,17.14c-6.48-0.04-12.48-0.79-18.23-1.78c-5.99-0.99-11.51-1.74-17.27-1.78
		c-13.44-0.07-20.91,5.4-20.98,18.85l-0.02,4.32l-13.2-0.07l0.03-5.04c0.11-19.92,8.83-34.75,33.07-34.62
		c6.48,0.04,13.19,1.03,19.67,2.03c6.48,1,12.95,1.99,19.43,2.03c7.44,0.04,17.77-2.3,17.87-19.34L690.07,355.75z"/>
</g>
</svg>
